<?xml version="1.0" encoding="UTF-8"?>
<!DOCTYPE svg PUBLIC "-//W3C//DTD SVG 1.1//EN" "http://www.w3.org/Graphics/SVG/1.1/DTD/svg11.dtd">
<svg xmlns="http://www.w3.org/2000/svg" version="1.1" width="859px" height="537px" style="shape-rendering:geometricPrecision; text-rendering:geometricPrecision; image-rendering:optimizeQuality; fill-rule:evenodd; clip-rule:evenodd" xmlns:xlink="http://www.w3.org/1999/xlink">
<g><path style="opacity:0.972" fill="#613813" d="M 858.5,326.5 C 858.5,334.833 858.5,343.167 858.5,351.5C 857.59,356.636 856.257,361.802 854.5,367C 856.407,371.806 857.74,376.64 858.5,381.5C 858.5,383.167 858.5,384.833 858.5,386.5C 854.865,409.645 841.532,424.145 818.5,430C 807.409,432.392 797.076,430.559 787.5,424.5C 770.633,428.807 753.633,432.473 736.5,435.5C 723.724,434.931 711.557,431.931 700,426.5C 692.618,430.405 684.785,432.905 676.5,434C 661.37,435.128 646.37,434.295 631.5,431.5C 634.164,452.155 636.831,472.822 639.5,493.5C 639.915,504.702 636.582,514.536 629.5,523C 625.656,525.422 621.99,528.089 618.5,531C 613.983,533.555 609.316,535.388 604.5,536.5C 598.5,536.5 592.5,536.5 586.5,536.5C 576.911,534.93 567.578,532.097 558.5,528C 547.897,519.08 540.064,508.246 535,495.5C 533.093,485.818 536.26,478.318 544.5,473C 549.167,471 553.833,469 558.5,467C 564.002,461.338 566.668,454.504 566.5,446.5C 565.778,439.449 564.778,432.449 563.5,425.5C 561.692,425.491 560.025,425.991 558.5,427C 522.291,452.601 483.625,456.601 442.5,439C 433.606,434.97 424.773,430.803 416,426.5C 410.907,429.258 406.073,432.425 401.5,436C 380.556,449.045 358.556,451.045 335.5,442C 316.405,433.709 299.238,422.542 284,408.5C 277.491,412.894 270.325,415.727 262.5,417C 240.59,418.685 219.924,414.351 200.5,404C 189.424,398.716 178.924,392.549 169,385.5C 154.85,421.61 135.016,454.11 109.5,483C 88.3807,496.892 65.714,507.559 41.5,515C 15.5177,520.162 1.51775,509.662 -0.5,483.5C -0.5,480.5 -0.5,477.5 -0.5,474.5C 1.62971,454.312 6.46304,434.645 14,415.5C 29.0605,409.47 42.0605,400.47 53,388.5C 58.9022,381.122 60.9022,372.789 59,363.5C 58.1085,357.6 56.4418,351.933 54,346.5C 53.3333,344.5 53.3333,342.5 54,340.5C 61.9867,327.199 69.9867,313.866 78,300.5C 89.1287,285.704 101.962,272.538 116.5,261C 137.138,244.863 158.472,229.696 180.5,215.5C 180.469,210.672 180.635,205.672 181,200.5C 182.449,197.384 184.616,194.884 187.5,193C 201.239,187.32 215.572,184.32 230.5,184C 252.332,171.252 273.999,158.252 295.5,145C 314.579,134.959 334.246,126.293 354.5,119C 413.506,99.5817 473.506,83.915 534.5,72C 538.288,63.2127 543.954,55.8793 551.5,50C 563.683,44.0762 576.016,38.4095 588.5,33C 601.583,16.7886 618.249,6.12195 638.5,1C 653.933,-1.22497 668.266,1.77503 681.5,10C 758.922,58.8853 810.089,127.719 835,216.5C 846.039,252.633 853.872,289.3 858.5,326.5 Z"/></g>
<g><path style="opacity:1" fill="#c59b6c" d="M 630.5,14.5 C 642.929,12.8644 654.596,15.0311 665.5,21C 713.715,50.2146 752.215,89.0479 781,137.5C 797.316,167.446 810.316,198.779 820,231.5C 828.812,262.37 835.479,293.703 840,325.5C 840.832,334.186 840.665,342.853 839.5,351.5C 834.016,344.925 827.016,341.258 818.5,340.5C 816.833,340.667 815.167,340.833 813.5,341C 810.64,343.554 807.307,345.221 803.5,346C 801.457,347.708 799.79,349.708 798.5,352C 801.005,353.753 803.671,355.253 806.5,356.5C 809.797,353.027 813.464,352.86 817.5,356C 821.548,359.716 825.882,363.05 830.5,366C 843.296,380.312 843.796,395.146 832,410.5C 822.864,418.641 813.031,419.475 802.5,413C 790.459,402.333 787.459,389.5 793.5,374.5C 791.772,372.123 789.439,370.456 786.5,369.5C 784.681,371.128 783.347,373.128 782.5,375.5C 780.714,373.979 778.881,373.646 777,374.5C 775.803,377.089 774.803,379.756 774,382.5C 772.17,393.403 773.67,403.737 778.5,413.5C 778.167,413.833 777.833,414.167 777.5,414.5C 766.076,417.231 754.576,419.565 743,421.5C 733.729,420.937 724.896,418.771 716.5,415C 731.523,393.603 740.023,369.77 742,343.5C 744.687,302.604 736.021,264.27 716,228.5C 700.268,202.426 684.934,176.093 670,149.5C 657.768,128.267 642.268,109.767 623.5,94C 602.265,79.8092 578.932,71.1425 553.5,68C 556.08,63.416 559.413,59.416 563.5,56C 576.619,50.186 589.619,44.186 602.5,38C 609.98,27.6637 619.313,19.8304 630.5,14.5 Z"/></g>
<g><path style="opacity:1" fill="#a8491c" d="M 698.5,415.5 C 714.367,395.417 722.867,372.417 724,346.5C 726.653,311.765 720.32,278.765 705,247.5C 686.414,215.997 668.081,184.33 650,152.5C 641.021,138.18 630.521,125.013 618.5,113C 595.206,92.6736 568.206,83.1736 537.5,84.5C 536.5,84.5 535.5,84.5 534.5,84.5C 534.082,83.7784 533.416,83.2784 532.5,83C 539.202,80.9926 546.035,79.4926 553,78.5C 584.869,82.7663 611.536,96.7663 633,120.5C 639,128.5 645,136.5 651,144.5C 672.4,180.909 693.4,217.576 714,254.5C 729.345,291.606 733.345,329.94 726,369.5C 723.291,382.299 718.624,394.299 712,405.5C 708.448,410.233 703.948,413.566 698.5,415.5 Z"/></g>
<g><path style="opacity:1" fill="#f5842e" d="M 698.5,415.5 C 693.8,417.762 688.8,419.262 683.5,420C 673.658,420.825 663.991,420.658 654.5,419.5C 655.552,419.649 656.552,419.483 657.5,419C 649.865,407.624 646.365,395.124 647,381.5C 649.55,374.053 654.217,368.386 661,364.5C 666.661,357.53 669.994,349.53 671,340.5C 672.239,313.265 668.905,286.599 661,260.5C 650.343,222.86 636.343,186.527 619,151.5C 607.541,135.041 593.708,120.874 577.5,109C 564.523,100.177 551.19,92.0099 537.5,84.5C 568.206,83.1736 595.206,92.6736 618.5,113C 630.521,125.013 641.021,138.18 650,152.5C 668.081,184.33 686.414,215.997 705,247.5C 720.32,278.765 726.653,311.765 724,346.5C 722.867,372.417 714.367,395.417 698.5,415.5 Z"/></g>
<g><path style="opacity:1" fill="#faaf3a" d="M 534.5,84.5 C 535.5,84.5 536.5,84.5 537.5,84.5C 551.19,92.0099 564.523,100.177 577.5,109C 593.708,120.874 607.541,135.041 619,151.5C 636.343,186.527 650.343,222.86 661,260.5C 668.905,286.599 672.239,313.265 671,340.5C 669.994,349.53 666.661,357.53 661,364.5C 654.217,368.386 649.55,374.053 647,381.5C 646.365,395.124 649.865,407.624 657.5,419C 656.552,419.483 655.552,419.649 654.5,419.5C 643.709,418.287 633.209,415.954 623,412.5C 621.927,414.547 620.761,416.547 619.5,418.5C 617.941,417.926 616.441,417.26 615,416.5C 613.55,419.008 612.383,421.675 611.5,424.5C 612.518,425.852 613.851,426.852 615.5,427.5C 614.376,433.448 614.21,439.448 615,445.5C 617.331,458.495 619.664,471.495 622,484.5C 622.667,492.5 622.667,500.5 622,508.5C 617.292,523.105 607.458,527.938 592.5,523C 570.902,519.569 556.902,507.402 550.5,486.5C 550.577,484.701 551.077,483.034 552,481.5C 556.06,479.145 560.227,476.979 564.5,475C 577.814,467.716 584.148,456.383 583.5,441C 582.859,430.989 581.193,421.156 578.5,411.5C 576.892,410.758 575.225,410.591 573.5,411C 572.789,409.745 571.956,408.579 571,407.5C 566.091,410.038 561.258,412.704 556.5,415.5C 534.338,414.966 512.338,414.299 490.5,413.5C 491.63,411.685 492.296,409.685 492.5,407.5C 486.992,405.499 481.325,403.999 475.5,403C 457.809,400.389 440.976,402.889 425,410.5C 419.498,407.417 414.165,404.084 409,400.5C 406.179,401.987 404.013,404.154 402.5,407C 403.731,408.405 405.064,409.571 406.5,410.5C 366.988,405.761 327.988,398.428 289.5,388.5C 284.187,383.522 278.854,378.522 273.5,373.5C 270.812,375.521 268.479,377.854 266.5,380.5C 242.867,372.925 218.867,366.925 194.5,362.5C 191.052,362.005 188.219,363.005 186,365.5C 185.498,368.513 184.998,371.513 184.5,374.5C 180.102,372.275 176.102,369.441 172.5,366C 169.809,366.468 167.142,367.302 164.5,368.5C 161.297,368.232 158.63,366.898 156.5,364.5C 153.564,382.475 147.73,399.475 139,415.5C 126.353,437.969 111.853,459.136 95.5,479C 79.8615,489.652 62.8615,497.319 44.5,502C 28.4579,504.403 19.6245,497.569 18,481.5C 17.8394,460.297 21.6727,439.797 29.5,420C 38.1486,414.695 46.8153,409.361 55.5,404C 78.1312,386.917 83.4645,365.417 71.5,339.5C 80.198,325.966 88.698,312.299 97,298.5C 123.14,269.677 152.807,245.343 186,225.5C 200.807,242.805 219.64,249.972 242.5,247C 263.125,244.35 277.291,233.517 285,214.5C 285.667,209.5 285.667,204.5 285,199.5C 282.011,195.509 278.178,192.676 273.5,191C 265.986,188.365 258.319,186.365 250.5,185C 273.981,170.202 297.981,156.202 322.5,143C 348.275,132.408 374.608,123.408 401.5,116C 445.563,104.214 489.897,93.714 534.5,84.5 Z"/></g>
<g><path style="opacity:1" fill="#613914" d="M 739.5,109.5 C 741.39,109.297 742.89,109.963 744,111.5C 766.325,139.46 785.658,169.46 802,201.5C 808.136,214.243 812.47,227.576 815,241.5C 815.5,248.158 815.666,254.825 815.5,261.5C 812.794,261.425 810.127,261.092 807.5,260.5C 807.5,262.167 807.5,263.833 807.5,265.5C 804.61,265.722 801.943,265.055 799.5,263.5C 798.024,244.29 793.191,225.957 785,208.5C 768.81,176.999 749.477,147.666 727,120.5C 728.255,115.939 731.422,113.439 736.5,113C 737.71,111.961 738.71,110.794 739.5,109.5 Z"/></g>
<g><path style="opacity:1" fill="#fcec21" d="M 522.5,116.5 C 531.673,114.784 539.506,117.118 546,123.5C 546.287,130.567 542.787,134.734 535.5,136C 526.606,138.258 519.106,136.092 513,129.5C 512.333,127.5 512.333,125.5 513,123.5C 515.529,120.115 518.696,117.782 522.5,116.5 Z"/></g>
<g><path style="opacity:1" fill="#643a13" d="M 420.5,149.5 C 437.409,148.49 454.076,149.99 470.5,154C 476.124,155.956 480.957,159.123 485,163.5C 487.136,181.753 479.969,195.253 463.5,204C 442.26,213.531 421.594,212.531 401.5,201C 388.853,192.539 383.02,180.706 384,165.5C 386.552,161.281 390.052,158.114 394.5,156C 403.001,152.649 411.668,150.482 420.5,149.5 Z"/></g>
<g><path style="opacity:1" fill="#633a13" d="M 600.5,157.5 C 618.932,155.099 626.765,163.099 624,181.5C 618.869,199.965 607.035,211.798 588.5,217C 571.353,221.726 556.853,217.559 545,204.5C 541.017,198.974 540.683,193.307 544,187.5C 560.125,172.355 578.958,162.355 600.5,157.5 Z"/></g>
<g><path style="opacity:1" fill="#ee5923" d="M 423.5,157.5 C 440.618,156.446 457.284,158.612 473.5,164C 476.523,165.182 478.189,167.349 478.5,170.5C 477.533,180.609 472.867,188.443 464.5,194C 448.649,203.24 431.982,204.907 414.5,199C 402.48,194.443 394.98,185.943 392,173.5C 391.333,171.5 391.333,169.5 392,167.5C 394.408,165.044 397.241,163.211 400.5,162C 408.244,160.151 415.911,158.651 423.5,157.5 Z"/></g>
<g><path style="opacity:1" fill="#ed2324" d="M 424.5,163.5 C 426.833,163.5 429.167,163.5 431.5,163.5C 431.5,164.5 431.5,165.5 431.5,166.5C 429.167,166.5 426.833,166.5 424.5,166.5C 424.5,165.5 424.5,164.5 424.5,163.5 Z"/></g>
<g><path style="opacity:1" fill="#ed2324" d="M 407.5,165.5 C 411.241,164.599 413.241,165.932 413.5,169.5C 411.167,169.5 408.833,169.5 406.5,169.5C 406.433,168.041 406.766,166.708 407.5,165.5 Z"/></g>
<g><path style="opacity:1" fill="#ee5823" d="M 601.5,165.5 C 605.967,165.133 610.3,165.633 614.5,167C 618.111,181.472 613.777,193.139 601.5,202C 589.07,210.221 575.736,212.221 561.5,208C 546.823,200.761 546.157,192.761 559.5,184C 572.535,175.387 586.535,169.221 601.5,165.5 Z"/></g>
<g><path style="opacity:1" fill="#ed2424" d="M 448.5,168.5 C 450.167,168.5 451.833,168.5 453.5,168.5C 453.5,169.5 453.5,170.5 453.5,171.5C 451.105,172.363 448.771,172.363 446.5,171.5C 447.193,170.482 447.859,169.482 448.5,168.5 Z"/></g>
<g><path style="opacity:1" fill="#ed2624" d="M 430.5,172.5 C 432.14,173.32 433.807,174.153 435.5,175C 436.821,176.545 436.488,177.711 434.5,178.5C 430.901,177.63 429.567,175.63 430.5,172.5 Z"/></g>
<g><path style="opacity:1" fill="#ed2624" d="M 593.5,175.5 C 594.675,175.281 595.675,175.614 596.5,176.5C 592.135,182.061 591.135,181.728 593.5,175.5 Z"/></g>
<g><path style="opacity:1" fill="#ed2424" d="M 403.5,176.5 C 407.205,176.871 409.205,178.871 409.5,182.5C 404.928,182.601 402.928,180.601 403.5,176.5 Z"/></g>
<g><path style="opacity:1" fill="#d85420" d="M 457.5,178.5 C 457.56,177.957 457.893,177.624 458.5,177.5C 459.386,178.325 459.719,179.325 459.5,180.5C 468.981,177.995 470.314,179.828 463.5,186C 449.04,195.866 433.373,198.199 416.5,193C 413.339,191.587 410.339,189.92 407.5,188C 410.379,187.454 413.046,186.621 415.5,185.5C 427.53,195.13 440.197,195.963 453.5,188C 457.318,185.569 458.652,182.402 457.5,178.5 Z"/></g>
<g><path style="opacity:1" fill="#693a14" d="M 457.5,178.5 C 458.652,182.402 457.318,185.569 453.5,188C 440.197,195.963 427.53,195.13 415.5,185.5C 414.378,183.948 413.878,182.282 414,180.5C 415.857,183.2 418.357,184.866 421.5,185.5C 422.263,186.268 423.263,186.768 424.5,187C 431.167,187.667 437.833,187.667 444.5,187C 448.776,186.195 452.443,184.362 455.5,181.5C 456.906,181.027 457.573,180.027 457.5,178.5 Z"/></g>
<g><path style="opacity:1" fill="#d85420" d="M 455.5,181.5 C 452.443,184.362 448.776,186.195 444.5,187C 437.833,187.667 431.167,187.667 424.5,187C 423.263,186.768 422.263,186.268 421.5,185.5C 432.776,183.699 444.109,182.365 455.5,181.5 Z"/></g>
<g><path style="opacity:1" fill="#683a13" d="M 604.5,181.5 C 602.94,192.566 596.607,199.4 585.5,202C 580.939,202.945 576.606,202.445 572.5,200.5C 570.683,199.781 570.016,198.781 570.5,197.5C 573.421,198.407 576.421,198.74 579.5,198.5C 587.921,196.707 595.088,192.707 601,186.5C 601.464,185.906 601.631,185.239 601.5,184.5C 602.09,183.234 602.59,181.901 603,180.5C 603.383,181.056 603.883,181.389 604.5,181.5 Z"/></g>
<g><path style="opacity:1" fill="#ed2324" d="M 579.5,185.5 C 581.977,185.051 583.977,185.717 585.5,187.5C 583.926,188.631 582.259,188.798 580.5,188C 579.748,187.329 579.414,186.496 579.5,185.5 Z"/></g>
<g><path style="opacity:1" fill="#d55320" d="M 601.5,184.5 C 601.631,185.239 601.464,185.906 601,186.5C 595.088,192.707 587.921,196.707 579.5,198.5C 586.148,192.838 593.481,188.171 601.5,184.5 Z"/></g>
<g><path style="opacity:1" fill="#ed2824" d="M 562.5,186.5 C 563.5,186.5 564.5,186.5 565.5,186.5C 565.047,191.346 563.047,192.346 559.5,189.5C 560.34,188.265 561.34,187.265 562.5,186.5 Z"/></g>
<g><path style="opacity:1" fill="#ef5923" d="M 214.5,193.5 C 226.171,193.333 237.838,193.5 249.5,194C 258.595,194.774 267.261,197.107 275.5,201C 278.937,204.318 279.437,208.151 277,212.5C 271.425,226.402 261.259,234.902 246.5,238C 227.768,242.359 211.268,238.192 197,225.5C 191.157,219.303 188.49,211.969 189,203.5C 190.167,202.333 191.333,201.167 192.5,200C 199.677,196.878 207.01,194.711 214.5,193.5 Z"/></g>
<g><path style="opacity:1" fill="#ed2724" d="M 561.5,197.5 C 564.95,196.756 566.616,198.09 566.5,201.5C 564.801,201.66 563.134,201.494 561.5,201C 560.316,199.855 560.316,198.688 561.5,197.5 Z"/></g>
<g><path style="opacity:1" fill="#ed1e24" d="M 222.5,199.5 C 224.924,199.192 227.257,199.526 229.5,200.5C 227.956,202.446 225.956,202.946 223.5,202C 222.748,201.329 222.414,200.496 222.5,199.5 Z"/></g>
<g><path style="opacity:1" fill="#ed2324" d="M 204.5,201.5 C 206.527,201.338 208.527,201.505 210.5,202C 211.833,203 211.833,204 210.5,205C 208.5,205.667 206.5,205.667 204.5,205C 203.316,203.855 203.316,202.688 204.5,201.5 Z"/></g>
<g><path style="opacity:1" fill="#d85420" d="M 572.5,200.5 C 576.606,202.445 580.939,202.945 585.5,202C 596.607,199.4 602.94,192.566 604.5,181.5C 606.757,181.038 608.757,180.038 610.5,178.5C 610.185,184.627 607.518,189.793 602.5,194C 592.798,203.673 581.131,207.34 567.5,205C 569.708,203.953 571.374,202.453 572.5,200.5 Z"/></g>
<g><path style="opacity:1" fill="#fcec21" d="M 318.5,201.5 C 324.373,201.848 330.207,202.514 336,203.5C 340.277,203.517 344.444,202.851 348.5,201.5C 350.739,201.574 351.739,202.741 351.5,205C 349.677,210.149 346.01,213.149 340.5,214C 331.606,216.258 324.106,214.092 318,207.5C 317.322,205.402 317.489,203.402 318.5,201.5 Z"/></g>
<g><path style="opacity:1" fill="#ed2124" d="M 246.5,204.5 C 248.604,204.201 250.604,204.534 252.5,205.5C 250.649,207.456 248.316,208.456 245.5,208.5C 245.433,207.041 245.766,205.708 246.5,204.5 Z"/></g>
<g><path style="opacity:1" fill="#ed2924" d="M 227.5,208.5 C 231.293,208.44 233.459,210.107 234,213.5C 230.069,214.424 227.902,212.757 227.5,208.5 Z"/></g>
<g><path style="opacity:1" fill="#ed2424" d="M 200.5,212.5 C 204.324,212.735 206.324,214.735 206.5,218.5C 202.167,218.833 200.167,216.833 200.5,212.5 Z"/></g>
<g><path style="opacity:1" fill="#673913" d="M 256.5,214.5 C 257.598,215.601 257.765,216.934 257,218.5C 253.242,224.635 247.742,228.135 240.5,229C 230.405,231.017 221.405,228.85 213.5,222.5C 209.389,215.217 210.389,214.717 216.5,221C 217.448,221.483 218.448,221.649 219.5,221.5C 221.476,223.011 223.809,223.844 226.5,224C 234.764,224.962 242.764,223.962 250.5,221C 252.324,220.34 253.657,219.173 254.5,217.5C 255.401,216.71 256.068,215.71 256.5,214.5 Z"/></g>
<g><path style="opacity:1" fill="#d85420" d="M 256.5,214.5 C 256.56,213.957 256.893,213.624 257.5,213.5C 258.386,214.325 258.719,215.325 258.5,216.5C 261.627,216.124 264.627,216.124 267.5,216.5C 259.609,225.613 249.609,230.78 237.5,232C 226.168,232.834 215.501,230.501 205.5,225C 208.048,223.85 210.715,223.017 213.5,222.5C 221.405,228.85 230.405,231.017 240.5,229C 247.742,228.135 253.242,224.635 257,218.5C 257.765,216.934 257.598,215.601 256.5,214.5 Z"/></g>
<g><path style="opacity:1" fill="#d45320" d="M 254.5,217.5 C 253.657,219.173 252.324,220.34 250.5,221C 242.764,223.962 234.764,224.962 226.5,224C 223.809,223.844 221.476,223.011 219.5,221.5C 231.158,220.101 242.825,218.767 254.5,217.5 Z"/></g>
<g><path style="opacity:1" fill="#fcec21" d="M 472.5,226.5 C 476.167,226.5 479.833,226.5 483.5,226.5C 483.091,229.991 482.091,233.325 480.5,236.5C 482.091,239.675 483.091,243.009 483.5,246.5C 475.263,248.033 468.43,245.699 463,239.5C 462.333,237.5 462.333,235.5 463,233.5C 465.529,230.115 468.696,227.782 472.5,226.5 Z"/></g>
<g><path style="opacity:1" fill="#643a13" d="M 358.5,256.5 C 379.76,254.605 388.26,264.271 384,285.5C 377.38,307.451 362.88,321.284 340.5,327C 321.641,331.746 305.474,327.246 292,313.5C 286.909,306.921 286.242,299.921 290,292.5C 304.004,278.408 320.504,268.242 339.5,262C 345.911,259.985 352.244,258.152 358.5,256.5 Z"/></g>
<g><path style="opacity:1" fill="#fcec21" d="M 610.5,262.5 C 612.857,262.337 615.19,262.503 617.5,263C 624.538,267.347 632.205,270.013 640.5,271C 643.529,275.127 642.529,278.127 637.5,280C 626.798,282.066 617.965,278.9 611,270.5C 610.503,267.854 610.336,265.187 610.5,262.5 Z"/></g>
<g><path style="opacity:1" fill="#ee5923" d="M 358.5,264.5 C 363.628,264.112 368.628,264.612 373.5,266C 377.459,275.143 377.292,284.31 373,293.5C 362.082,310.882 346.249,319.882 325.5,320.5C 313.625,320.478 304.125,315.812 297,306.5C 295,303.167 295,299.833 297,296.5C 308.089,285.699 320.922,277.532 335.5,272C 343.232,269.325 350.898,266.825 358.5,264.5 Z"/></g>
<g><path style="opacity:1" fill="#633a13" d="M 541.5,271.5 C 558.53,270.457 573.864,274.957 587.5,285C 597.099,293.362 601.266,303.862 600,316.5C 598.167,321 595,324.167 590.5,326C 577.078,330.617 563.244,332.783 549,332.5C 534.724,332.982 520.891,330.815 507.5,326C 499.501,322.33 496.335,316.163 498,307.5C 500.969,294.86 508.136,285.36 519.5,279C 526.576,275.365 533.909,272.865 541.5,271.5 Z"/></g>
<g><path style="opacity:1" fill="#ed2624" d="M 348.5,277.5 C 349.978,277.238 351.311,277.571 352.5,278.5C 347.418,285.454 346.084,285.121 348.5,277.5 Z"/></g>
<g><path style="opacity:1" fill="#ee5923" d="M 540.5,279.5 C 558.822,277.771 574.322,283.437 587,296.5C 597.084,310.202 593.918,318.702 577.5,322C 558.505,325.333 539.505,325.333 520.5,322C 514.75,321.209 509.917,318.709 506,314.5C 506.383,301.758 512.216,292.258 523.5,286C 529.015,283.111 534.681,280.945 540.5,279.5 Z"/></g>
<g><path style="opacity:1" fill="#ed2924" d="M 327.5,281.5 C 328.5,281.5 329.5,281.5 330.5,281.5C 329.614,285.037 327.281,286.704 323.5,286.5C 323.281,285.325 323.614,284.325 324.5,283.5C 325.739,283.058 326.739,282.391 327.5,281.5 Z"/></g>
<g><path style="opacity:1" fill="#683a13" d="M 361.5,285.5 C 360.699,294.926 356.032,301.759 347.5,306C 339.607,309.826 331.607,310.326 323.5,307.5C 321.683,306.781 321.016,305.781 321.5,304.5C 324.084,305.393 326.751,305.726 329.5,305.5C 341.153,304.59 350.653,299.59 358,290.5C 358.483,289.552 358.649,288.552 358.5,287.5C 359.29,286.391 359.79,285.058 360,283.5C 360.717,284.044 361.217,284.711 361.5,285.5 Z"/></g>
<g><path style="opacity:1" fill="#d75420" d="M 568.5,296.5 C 559.972,289.852 550.306,287.685 539.5,290C 533.116,291.897 528.449,295.73 525.5,301.5C 522.159,302.005 518.826,302.172 515.5,302C 526.804,289.691 540.804,284.691 557.5,287C 564.307,288.157 570.64,290.49 576.5,294C 573.69,294.782 571.023,295.616 568.5,296.5 Z"/></g>
<g><path style="opacity:1" fill="#d65420" d="M 358.5,287.5 C 358.649,288.552 358.483,289.552 358,290.5C 350.653,299.59 341.153,304.59 329.5,305.5C 338.963,299.264 348.63,293.264 358.5,287.5 Z"/></g>
<g><path style="opacity:1" fill="#663913" d="M 568.5,296.5 C 569.622,298.052 570.122,299.718 570,301.5C 568.362,299.266 566.195,297.933 563.5,297.5C 561.723,296.4 559.723,295.566 557.5,295C 548.514,293.645 539.847,294.645 531.5,298C 530.619,298.708 529.953,299.542 529.5,300.5C 527.827,301.343 526.66,302.676 526,304.5C 525.517,303.552 525.351,302.552 525.5,301.5C 528.449,295.73 533.116,291.897 539.5,290C 550.306,287.685 559.972,289.852 568.5,296.5 Z"/></g>
<g><path style="opacity:1" fill="#ed2824" d="M 332.5,289.5 C 335.157,289.162 337.49,289.829 339.5,291.5C 337.956,293.446 335.956,293.946 333.5,293C 332.663,291.989 332.33,290.822 332.5,289.5 Z"/></g>
<g><path style="opacity:1" fill="#ed2524" d="M 309.5,291.5 C 311.167,291.5 312.833,291.5 314.5,291.5C 313.745,296.596 311.411,297.596 307.5,294.5C 308.193,293.482 308.859,292.482 309.5,291.5 Z"/></g>
<g><path style="opacity:1" fill="#d55320" d="M 563.5,297.5 C 552.108,298.008 540.775,299.008 529.5,300.5C 529.953,299.542 530.619,298.708 531.5,298C 539.847,294.645 548.514,293.645 557.5,295C 559.723,295.566 561.723,296.4 563.5,297.5 Z"/></g>
<g><path style="opacity:1" fill="#ed2624" d="M 575.5,299.5 C 579.167,299.833 581.167,301.833 581.5,305.5C 576.928,305.601 574.928,303.601 575.5,299.5 Z"/></g>
<g><path style="opacity:1" fill="#ed2124" d="M 309.5,304.5 C 311.591,304.318 313.591,304.652 315.5,305.5C 316.386,306.325 316.719,307.325 316.5,308.5C 314.473,308.662 312.473,308.495 310.5,308C 309.663,306.989 309.33,305.822 309.5,304.5 Z"/></g>
<g><path style="opacity:1" fill="#ed2524" d="M 547.5,304.5 C 551.577,304.017 553.91,305.684 554.5,309.5C 550.86,309.525 548.527,307.858 547.5,304.5 Z"/></g>
<g><path style="opacity:1" fill="#d85420" d="M 323.5,307.5 C 331.607,310.326 339.607,309.826 347.5,306C 356.032,301.759 360.699,294.926 361.5,285.5C 363.969,284.431 366.302,283.098 368.5,281.5C 368.833,282 369.167,282.5 369.5,283C 364.118,297.874 353.784,307.541 338.5,312C 331.487,314.616 324.487,314.95 317.5,313C 320.26,311.821 322.26,309.988 323.5,307.5 Z"/></g>
<g><path style="opacity:1" fill="#fcec21" d="M 212.5,308.5 C 214.833,308.5 217.167,308.5 219.5,308.5C 219.559,312.548 217.892,315.715 214.5,318C 209.979,322.118 204.646,323.952 198.5,323.5C 198.372,321.345 198.872,319.345 200,317.5C 203.811,313.832 207.978,310.832 212.5,308.5 Z"/></g>
<g><path style="opacity:1" fill="#ed2924" d="M 534.5,309.5 C 535.5,309.5 536.5,309.5 537.5,309.5C 537.621,312.541 536.121,314.208 533,314.5C 531.72,314.387 530.887,313.72 530.5,312.5C 531.624,311.141 532.958,310.141 534.5,309.5 Z"/></g>
<g><path style="opacity:1" fill="#ed2224" d="M 571.5,312.5 C 575.241,311.599 577.241,312.932 577.5,316.5C 575.167,316.5 572.833,316.5 570.5,316.5C 570.433,315.041 570.766,313.708 571.5,312.5 Z"/></g>
<g><path style="opacity:1" fill="#ed2024" d="M 553.5,315.5 C 555.977,315.051 557.977,315.717 559.5,317.5C 557.167,318.833 554.833,318.833 552.5,317.5C 552.863,316.817 553.196,316.15 553.5,315.5 Z"/></g>
<g><path style="opacity:1" fill="#fcec21" d="M 434.5,328.5 C 443.673,326.784 451.506,329.118 458,335.5C 459.489,339.833 457.989,342.167 453.5,342.5C 444.507,341.6 435.507,341.433 426.5,342C 424.604,340.192 424.104,338.025 425,335.5C 427.529,332.115 430.696,329.782 434.5,328.5 Z"/></g>
<g><path style="opacity:1" fill="#fcec21" d="M 651.5,338.5 C 654.518,338.335 657.518,338.502 660.5,339C 661.931,339.465 663.097,340.299 664,341.5C 664.829,346.864 664.663,352.198 663.5,357.5C 659.085,359.107 654.918,358.774 651,356.5C 650.894,353.586 651.394,350.752 652.5,348C 652.416,345.499 651.75,343.166 650.5,341C 650.743,340.098 651.077,339.265 651.5,338.5 Z"/></g>
<g><path style="opacity:1" fill="#f8a02c" d="M 266.5,380.5 C 271.167,384.5 275.5,388.833 279.5,393.5C 273.921,396.749 267.921,398.916 261.5,400C 251.429,400.777 241.429,400.277 231.5,398.5C 214.524,392.846 198.858,384.846 184.5,374.5C 184.998,371.513 185.498,368.513 186,365.5C 188.219,363.005 191.052,362.005 194.5,362.5C 218.867,366.925 242.867,372.925 266.5,380.5 Z"/></g>
<g><path style="opacity:1" fill="#f8a02b" d="M 289.5,388.5 C 327.988,398.428 366.988,405.761 406.5,410.5C 407.71,410.932 408.71,411.599 409.5,412.5C 402.602,415.288 396.268,419.121 390.5,424C 376.784,430.897 362.451,432.397 347.5,428.5C 325.408,419.124 306.074,405.791 289.5,388.5 Z"/></g>
<g><path style="opacity:1" fill="#f5ab38" d="M 279.5,393.5 C 281.446,394.254 282.279,395.588 282,397.5C 278.639,400.263 274.805,402.097 270.5,403C 262.833,403.667 255.167,403.667 247.5,403C 241.794,402.41 236.46,400.91 231.5,398.5C 241.429,400.277 251.429,400.777 261.5,400C 267.921,398.916 273.921,396.749 279.5,393.5 Z"/></g>
<g><path style="opacity:1" fill="#f5ab39" d="M 482.5,414.5 C 482.082,415.222 481.416,415.722 480.5,416C 472.286,416.072 464.286,417.405 456.5,420C 454.568,421.459 452.568,422.625 450.5,423.5C 445.13,421.982 440.13,419.649 435.5,416.5C 450.965,410.847 466.632,410.181 482.5,414.5 Z"/></g>
<g><path style="opacity:1" fill="#f3a938" d="M 409.5,412.5 C 410.973,413.072 412.307,413.905 413.5,415C 413.167,415.333 412.833,415.667 412.5,416C 402.813,421.699 393.147,427.366 383.5,433C 370.935,435.263 358.935,433.763 347.5,428.5C 362.451,432.397 376.784,430.897 390.5,424C 396.268,419.121 402.602,415.288 409.5,412.5 Z"/></g>
<g><path style="opacity:1" fill="#f7a02b" d="M 490.5,413.5 C 512.338,414.299 534.338,414.966 556.5,415.5C 527.914,437.171 496.581,441.671 462.5,429C 458.186,427.628 454.186,425.795 450.5,423.5C 452.568,422.625 454.568,421.459 456.5,420C 464.286,417.405 472.286,416.072 480.5,416C 481.416,415.722 482.082,415.222 482.5,414.5C 485.802,417.245 488.468,416.911 490.5,413.5 Z"/></g>
<g><path style="opacity:1" fill="#9e5d17" d="M 425.5,425.5 C 426.946,424.387 428.613,424.22 430.5,425C 447.588,434.918 465.921,441.252 485.5,444C 464.192,442.176 444.192,436.009 425.5,425.5 Z"/></g>
<g><path style="opacity:1" fill="#c7872d" d="M 548.5,500.5 C 545.657,497.808 544.491,494.474 545,490.5C 546.075,493.894 547.242,497.228 548.5,500.5 Z"/></g>
<g><path style="opacity:1" fill="#c8882d" d="M 548.5,500.5 C 549.906,500.973 550.573,501.973 550.5,503.5C 549.094,503.027 548.427,502.027 548.5,500.5 Z"/></g>
<g><path style="opacity:1" fill="#bd802b" d="M 550.5,503.5 C 552.262,504.262 553.262,505.596 553.5,507.5C 551.738,506.738 550.738,505.404 550.5,503.5 Z"/></g>
<g><path style="opacity:1" fill="#b07627" d="M 553.5,507.5 C 556.073,508.879 557.573,510.879 558,513.5C 555.873,511.886 554.373,509.886 553.5,507.5 Z"/></g>
</svg>
